<svg width="15" height="15" viewBox="0 0 15 15" fill="none" xmlns="http://www.w3.org/2000/svg">
<path d="M7.41016 3.90625C9.37891 3.90625 11.0039 5.53125 11.0039 7.5C11.0039 9.5 9.37891 11.0938 7.41016 11.0938C5.41016 11.0938 3.81641 9.5 3.81641 7.5C3.81641 5.53125 5.41016 3.90625 7.41016 3.90625ZM7.41016 9.84375C8.69141 9.84375 9.72266 8.8125 9.72266 7.5C9.72266 6.21875 8.69141 5.1875 7.41016 5.1875C6.09766 5.1875 5.06641 6.21875 5.06641 7.5C5.06641 8.8125 6.12891 9.84375 7.41016 9.84375ZM11.9727 3.78125C11.9727 4.25 11.5977 4.625 11.1289 4.625C10.6602 4.625 10.2852 4.25 10.2852 3.78125C10.2852 3.3125 10.6602 2.9375 11.1289 2.9375C11.5977 2.9375 11.9727 3.3125 11.9727 3.78125ZM14.3477 4.625C14.4102 5.78125 14.4102 9.25 14.3477 10.4062C14.2852 11.5312 14.0352 12.5 13.2227 13.3438C12.4102 14.1562 11.4102 14.4062 10.2852 14.4688C9.12891 14.5312 5.66016 14.5312 4.50391 14.4688C3.37891 14.4062 2.41016 14.1562 1.56641 13.3438C0.753906 12.5 0.503906 11.5312 0.441406 10.4062C0.378906 9.25 0.378906 5.78125 0.441406 4.625C0.503906 3.5 0.753906 2.5 1.56641 1.6875C2.41016 0.875 3.37891 0.625 4.50391 0.5625C5.66016 0.5 9.12891 0.5 10.2852 0.5625C11.4102 0.625 12.4102 0.875 13.2227 1.6875C14.0352 2.5 14.2852 3.5 14.3477 4.625ZM12.8477 11.625C13.2227 10.7188 13.1289 8.53125 13.1289 7.5C13.1289 6.5 13.2227 4.3125 12.8477 3.375C12.5977 2.78125 12.1289 2.28125 11.5352 2.0625C10.5977 1.6875 8.41016 1.78125 7.41016 1.78125C6.37891 1.78125 4.19141 1.6875 3.28516 2.0625C2.66016 2.3125 2.19141 2.78125 1.94141 3.375C1.56641 4.3125 1.66016 6.5 1.66016 7.5C1.66016 8.53125 1.56641 10.7188 1.94141 11.625C2.19141 12.25 2.66016 12.7188 3.28516 12.9688C4.19141 13.3438 6.37891 13.25 7.41016 13.25C8.41016 13.25 10.5977 13.3438 11.5352 12.9688C12.1289 12.7188 12.6289 12.25 12.8477 11.625Z" fill="#222B45"/>
</svg>
