<svg width="15" height="15" viewBox="0 0 15 15" fill="none" xmlns="http://www.w3.org/2000/svg">
<path d="M3.75391 14.5H0.847656V5.15625H3.75391V14.5ZM2.28516 3.90625C1.37891 3.90625 0.628906 3.125 0.628906 2.1875C0.628906 1.28125 1.37891 0.53125 2.28516 0.53125C3.22266 0.53125 3.97266 1.28125 3.97266 2.1875C3.97266 3.125 3.22266 3.90625 2.28516 3.90625ZM14.5977 14.5H11.7227V9.96875C11.7227 8.875 11.6914 7.5 10.1914 7.5C8.69141 7.5 8.47266 8.65625 8.47266 9.875V14.5H5.56641V5.15625H8.34766V6.4375H8.37891C8.78516 5.71875 9.72266 4.9375 11.1289 4.9375C14.0664 4.9375 14.6289 6.875 14.6289 9.375V14.5H14.5977Z" fill="#222B45"/>
</svg>
