<svg width="12" height="14" viewBox="0 0 12 14" fill="none" xmlns="http://www.w3.org/2000/svg">
<g clip-path="url(#clip0_30_8578)">
<path d="M11.5115 5.82975C10.3931 5.83242 9.30225 5.48381 8.39289 4.83316V9.37098C8.39258 10.2114 8.13558 11.0318 7.65625 11.7223C7.17693 12.4128 6.49813 12.9406 5.71061 13.2351C4.92309 13.5295 4.0644 13.5767 3.24935 13.3702C2.4343 13.1637 1.70175 12.7134 1.14964 12.0795C0.597529 11.4457 0.252184 10.6584 0.159779 9.82304C0.0673749 8.98767 0.232316 8.14402 0.632547 7.40489C1.03278 6.66576 1.64922 6.06638 2.39945 5.68689C3.14968 5.30741 3.99794 5.1659 4.8308 5.28131V7.56367C4.44968 7.44385 4.04043 7.44746 3.66149 7.57399C3.28254 7.70052 2.95329 7.9435 2.72074 8.26823C2.4882 8.59296 2.36425 8.98283 2.3666 9.38218C2.36896 9.78152 2.49749 10.1699 2.73385 10.4919C2.9702 10.8139 3.3023 11.0529 3.68271 11.175C4.06311 11.2971 4.47238 11.2959 4.85206 11.1715C5.23174 11.0472 5.56241 10.8062 5.79686 10.4828C6.03131 10.1595 6.15754 9.77033 6.15753 9.37098V0.5H8.39289C8.39134 0.688688 8.40715 0.877119 8.44014 1.06291C8.51781 1.47766 8.67932 1.87221 8.91478 2.22243C9.15024 2.57265 9.4547 2.87118 9.80955 3.09975C10.3144 3.4334 10.9063 3.61124 11.5115 3.61111V5.82975Z" fill="#222B45"/>
</g>
<defs>
<clipPath id="clip0_30_8578">
<rect width="11.38" height="13" fill="white" transform="translate(0.130859 0.5)"/>
</clipPath>
</defs>
</svg>
