<svg width="18" height="13" viewBox="0 0 18 13" fill="none" xmlns="http://www.w3.org/2000/svg">
<path d="M17.377 2.40625C17.752 3.71875 17.752 6.53125 17.752 6.53125C17.752 6.53125 17.752 9.3125 17.377 10.6562C17.1895 11.4062 16.5957 11.9688 15.877 12.1562C14.5332 12.5 9.2207 12.5 9.2207 12.5C9.2207 12.5 3.87695 12.5 2.5332 12.1562C1.81445 11.9688 1.2207 11.4062 1.0332 10.6562C0.658203 9.3125 0.658203 6.53125 0.658203 6.53125C0.658203 6.53125 0.658203 3.71875 1.0332 2.40625C1.2207 1.65625 1.81445 1.0625 2.5332 0.875C3.87695 0.5 9.2207 0.5 9.2207 0.5C9.2207 0.5 14.5332 0.5 15.877 0.875C16.5957 1.0625 17.1895 1.65625 17.377 2.40625ZM7.4707 9.0625L11.9082 6.53125L7.4707 4V9.0625Z" fill="#222B45"/>
</svg>
