<svg width="21" height="20" viewBox="0 0 21 20" fill="none" xmlns="http://www.w3.org/2000/svg">
<path d="M18.17 0H2.82979C1.26697 0 0 1.20659 0 2.69504V17.3049C0 18.7933 1.26692 19.9999 2.82979 19.9999H10.3955L10.4084 12.853H8.45881C8.20545 12.853 7.99981 12.6579 7.99883 12.4166L7.98948 10.1129C7.9885 9.87025 8.19476 9.67308 8.44951 9.67308H10.3956V7.44709C10.3956 4.86384 12.0521 3.45724 14.4718 3.45724H16.4573C16.7113 3.45724 16.9173 3.65339 16.9173 3.89537V5.83789C16.9173 6.07978 16.7115 6.27587 16.4575 6.27602L15.2391 6.27655C13.9232 6.27655 13.6684 6.87207 13.6684 7.74602V9.67313H16.5598C16.8353 9.67313 17.0491 9.90225 17.0166 10.1628L16.7299 12.4666C16.7025 12.687 16.5062 12.8531 16.2731 12.8531H13.6813L13.6684 20H18.1701C19.7329 20 20.9998 18.7934 20.9998 17.305V2.69504C20.9998 1.20659 19.7329 0 18.17 0Z" fill="#4E4E50"/>
</svg>
