<svg width="22" height="18" viewBox="0 0 22 18" fill="none" xmlns="http://www.w3.org/2000/svg">
<path d="M21.6501 2.48521C21.1613 2.69211 20.6539 2.85533 20.1332 2.9735C20.7069 2.45311 21.1383 1.8022 21.3816 1.07567C21.4511 0.868256 21.2151 0.688902 21.0189 0.799955C20.2946 1.21007 19.5143 1.51773 18.6998 1.71449C18.6526 1.72591 18.6038 1.7317 18.5549 1.7317C18.4065 1.7317 18.2623 1.67911 18.1489 1.58368C17.2823 0.854637 16.1677 0.453125 15.0106 0.453125C14.5099 0.453125 14.0043 0.527621 13.508 0.674566C11.9701 1.12989 10.7834 2.34082 10.4111 3.83484C10.2714 4.39523 10.2336 4.95613 10.2986 5.50192C10.3061 5.56464 10.275 5.60842 10.2559 5.62895C10.2223 5.66494 10.1746 5.68558 10.1251 5.68558C10.1195 5.68558 10.1139 5.68532 10.1082 5.68481C6.74177 5.38626 3.70606 3.83812 1.56026 1.32563C1.45084 1.19747 1.24101 1.21319 1.15379 1.35599C0.733592 2.04412 0.511529 2.83117 0.511529 3.63204C0.511529 4.85941 1.02812 6.01607 1.92543 6.85929C1.54809 6.77389 1.18287 6.63939 0.843604 6.45952C0.679471 6.37248 0.477523 6.48435 0.475216 6.66355C0.451723 8.48689 1.57008 10.1093 3.24542 10.8399C3.21168 10.8407 3.17794 10.841 3.14415 10.841C2.87859 10.841 2.6097 10.8166 2.34505 10.7683C2.16021 10.7346 2.00493 10.902 2.06232 11.073C2.6061 12.6935 4.06785 13.888 5.8171 14.1593C4.36533 15.0895 2.67471 15.5802 0.915103 15.5802L0.366545 15.5799C0.197531 15.5799 0.054585 15.6851 0.0115134 15.8413C-0.0309144 15.9952 0.0472365 16.1576 0.191363 16.2376C2.17415 17.3391 4.43581 17.9212 6.73282 17.9212C8.74345 17.9212 10.6242 17.5404 12.3229 16.7893C13.8802 16.1007 15.2564 15.1163 16.4131 13.8636C17.4907 12.6967 18.3334 11.3495 18.9176 9.85972C19.4745 8.43958 19.7689 6.92426 19.7689 5.47755V5.40864C19.7688 5.17634 19.8789 4.95777 20.0709 4.80898C20.7996 4.24424 21.4342 3.57946 21.9569 2.83311C22.0949 2.63604 21.8772 2.38905 21.6501 2.48521Z" fill="#273150"/>
</svg>
