<svg width="21" height="20" viewBox="0 0 21 20" fill="none" xmlns="http://www.w3.org/2000/svg">
<g id="Layer 2">
<path id="Vector" d="M7.69231 15.3846C6.17091 15.3846 4.68368 14.9335 3.41869 14.0882C2.1537 13.243 1.16776 12.0416 0.585545 10.636C0.00333295 9.23044 -0.149 7.68377 0.147809 6.19161C0.444618 4.69945 1.17724 3.32881 2.25303 2.25303C3.32881 1.17724 4.69945 0.444618 6.19161 0.147809C7.68377 -0.149 9.23044 0.00333295 10.636 0.585545C12.0416 1.16776 13.243 2.1537 14.0882 3.41869C14.9335 4.68368 15.3846 6.17091 15.3846 7.69231C15.3846 8.70247 15.1856 9.70275 14.7991 10.636C14.4125 11.5693 13.8459 12.4173 13.1316 13.1316C12.4173 13.8459 11.5693 14.4125 10.636 14.7991C9.70275 15.1856 8.70247 15.3846 7.69231 15.3846ZM7.69231 1.53846C6.47519 1.53846 5.28541 1.89938 4.27341 2.57557C3.26142 3.25177 2.47267 4.21286 2.0069 5.33733C1.54113 6.4618 1.41926 7.69913 1.65671 8.89286C1.89416 10.0866 2.48025 11.1831 3.34088 12.0437C4.20151 12.9044 5.29802 13.4905 6.49175 13.7279C7.68548 13.9654 8.92281 13.8435 10.0473 13.3777C11.1717 12.9119 12.1328 12.1232 12.809 11.1112C13.4852 10.0992 13.8461 8.90942 13.8461 7.69231C13.8461 6.06021 13.1978 4.49495 12.0437 3.34088C10.8897 2.18681 9.32441 1.53846 7.69231 1.53846Z" fill="white"/>
<path id="Vector_2" d="M19.2309 20C19.1297 20.0006 19.0293 19.9812 18.9356 19.9429C18.8419 19.9046 18.7566 19.8482 18.6848 19.7769L12.5309 13.6231C12.4592 13.5513 12.4023 13.4662 12.3635 13.3725C12.3247 13.2788 12.3047 13.1783 12.3047 13.0769C12.3047 12.9755 12.3247 12.875 12.3635 12.7813C12.4023 12.6876 12.4592 12.6025 12.5309 12.5308C12.6026 12.459 12.6878 12.4021 12.7815 12.3633C12.8752 12.3245 12.9756 12.3045 13.0771 12.3045C13.1785 12.3045 13.2789 12.3245 13.3726 12.3633C13.4663 12.4021 13.5515 12.459 13.6232 12.5308L19.7771 18.6846C19.8492 18.7561 19.9064 18.8412 19.9454 18.9349C19.9845 19.0287 20.0046 19.1292 20.0046 19.2308C20.0046 19.3323 19.9845 19.4328 19.9454 19.5266C19.9064 19.6203 19.8492 19.7054 19.7771 19.7769C19.7052 19.8482 19.6199 19.9046 19.5262 19.9429C19.4325 19.9812 19.3321 20.0006 19.2309 20Z" fill="white"/>
</g>
</svg>
