<svg width="45" height="40" viewBox="0 0 45 40" fill="none" xmlns="http://www.w3.org/2000/svg">
<path d="M44.1759 0.824067C43.6267 0.274572 42.9071 0 42.1874 0C41.4678 0 40.7481 0.274572 40.199 0.824067L22.3118 14.9397C21.9672 15.158 21.636 15.4094 21.3355 15.71C19.1382 17.9059 19.1382 21.4669 21.3355 23.6641C22.4341 24.7624 23.8734 25.3119 25.3127 25.3119C26.752 25.3119 28.1913 24.7624 29.2899 23.6641C29.5905 23.3636 29.8419 23.0324 30.0602 22.6878L44.1762 4.80131C45.2745 3.70232 45.2745 1.9227 44.1759 0.824067ZM41.9677 3.05826L27.8517 20.9448C27.7926 21.0218 27.7364 21.0998 27.684 21.1824C27.5564 21.3828 27.4312 21.5449 27.2994 21.6753C26.7692 22.2069 26.0633 22.4994 25.3124 22.4994C24.5614 22.4994 23.8551 22.2069 23.3239 21.6753C22.7927 21.1438 22.4998 20.4368 22.4998 19.6869C22.4998 18.9356 22.7923 18.2297 23.3239 17.6984C23.4543 17.568 23.6164 17.4429 23.8168 17.3152C23.8991 17.2632 23.9775 17.207 24.0545 17.1479L41.9417 3.03224C42.0281 2.96377 42.1078 2.8911 42.1843 2.81281C42.1845 2.81262 42.1848 2.81251 42.185 2.81251C42.1859 2.81251 42.1864 2.81358 42.1857 2.81421C42.108 2.89174 42.0358 2.9724 41.9677 3.05826Z" fill="#AB9649"/>
<path d="M15.337 22.5005C14.2478 22.5005 13.1576 22.7476 12.155 23.2395C11.956 23.3288 11.7595 23.436 11.5644 23.5541C11.4462 23.6241 11.3281 23.6941 11.2128 23.7724C10.8683 24.0115 10.5262 24.2791 10.1964 24.6116C9.86138 24.9491 9.59067 25.3007 9.35055 25.6565C9.29149 25.7458 9.23805 25.8351 9.18286 25.9244C8.98915 26.239 8.82039 26.5589 8.68012 26.8841C8.6541 26.9502 8.61965 27.0132 8.59364 27.0807C7.46804 29.9138 9.20883 30.8562 6.32014 33.6885C4.20053 35.7667 4.79197 39.3749 7.76043 39.3749C14.7448 39.3749 18.6158 36.5337 19.9007 35.3789C20.2414 35.0726 20.5578 34.7432 20.8483 34.389C23.194 31.5298 23.0417 27.2854 20.3893 24.6088C18.9926 23.198 17.1662 22.5005 15.337 22.5005ZM18.39 32.9209C18.3625 32.9483 18.3091 33.0059 18.2842 33.0348C18.1523 33.1775 14.9812 36.5624 7.76043 36.5624C7.61902 36.5624 7.5559 36.3863 7.66156 36.2923C10.2939 33.951 10.9164 32.1682 10.9533 29.7497C10.9628 29.1303 10.9685 28.7197 11.1882 28.1649C11.2005 28.1403 11.2529 28.0208 11.2638 27.9961C11.3517 27.7929 11.4575 27.5936 11.6139 27.3398L11.6811 27.2311C11.8583 26.9689 12.0203 26.7657 12.1933 26.5913C12.3635 26.4211 12.5544 26.2643 12.792 26.0998C12.8592 26.053 12.9295 26.0133 13.0212 25.9599C13.1147 25.9022 13.2093 25.8488 13.3935 25.7648C13.9965 25.468 14.668 25.313 15.3366 25.313C16.4915 25.313 17.5765 25.7662 18.391 26.5874C20.12 28.3326 20.12 31.1739 18.39 32.9209Z" fill="#AB9649"/>
</svg>
