<svg width="73" height="67" viewBox="0 0 73 67" fill="none" xmlns="http://www.w3.org/2000/svg">
<path d="M14.7224 66.9999H72.8548V58.4221L66.1896 45.8451L62.2484 47.9316L68.392 59.5233V62.5371H58.5391L60.8574 34.717H11.3608L14.7224 66.9999ZM56.0469 39.1798L54.0763 62.5371H18.7216L16.2873 39.1798H56.0469Z" fill="#29ACE4"/>
<path d="M51.9876 15.5329C51.9876 6.95502 45.0326 0 36.4548 0C27.8769 0 20.9219 6.95502 20.9219 15.5329C20.9219 24.1107 27.8769 31.0658 36.4548 31.0658C45.0326 31.0658 51.9876 24.1107 51.9876 15.5329ZM25.3267 15.5329C25.3267 9.38928 30.3112 4.40485 36.4548 4.40485C42.5984 4.40485 47.5828 9.38928 47.5828 15.5329C47.5828 21.6765 42.5984 26.6609 36.4548 26.6609C30.3112 26.6609 25.3267 21.6765 25.3267 15.5329Z" fill="#29ACE4"/>
<path d="M10.6064 47.9893L6.66523 45.9028L0 58.4219V66.9997H9.79499V62.5949H4.46281V59.581L10.6064 47.9893Z" fill="#29ACE4"/>
<path d="M35.8769 52.6264C37.1573 52.6264 38.1953 51.5885 38.1953 50.3081C38.1953 49.0277 37.1573 47.9897 35.8769 47.9897C34.5966 47.9897 33.5586 49.0277 33.5586 50.3081C33.5586 51.5885 34.5966 52.6264 35.8769 52.6264Z" fill="#29ACE4"/>
</svg>
